<svg width="114" height="114" viewBox="0 0 114 114" fill="none" xmlns="http://www.w3.org/2000/svg">
<path d="M68.89 22.9068C81.2198 13.8966 98.1337 15.5959 105.049 17.5718C103.666 17.967 101.493 18.9639 100.307 21.1285C99.1216 23.2931 99.6628 28.4483 96.7505 34.1696C94.6503 38.2956 84.895 44.8396 77.7817 46.0251C70.6683 47.2107 62.3695 51.9529 61.1839 56.1023C62.3695 49.5818 57.6273 31.7985 68.89 22.9068Z" fill="url(#paint0_linear_213_12657)" stroke="url(#paint1_linear_213_12657)" stroke-width="1.18555"/>
<path d="M61.7571 54.5305C62.123 52.9205 62.0461 51.71 62.7211 49.7883C64.2093 45.5514 66.471 40.739 69.6042 36.1544C73.072 31.0802 77.6074 26.285 83.3432 22.858C89.1142 19.4101 96.1003 17.3471 104.437 17.7783" stroke="url(#paint2_linear_213_12657)" stroke-width="1.18555"/>
<path d="M65.9066 42.6749C65.9066 40.8966 67.922 33.072 71.2415 27.8555M65.9066 42.6749C69.4632 38.5255 77.7621 31.4122 86.061 30.2266M65.9066 42.6749C75.9838 39.1183 81.4373 39.8296 84.2826 40.3038" stroke="url(#paint3_linear_213_12657)" stroke-width="0.948443" stroke-linecap="round"/>
<circle cx="65.3138" cy="43.8605" r="1.42266" fill="url(#paint4_radial_213_12657)" stroke="#60A80E" stroke-width="0.711332"/>
<path d="M76.5765 27.8515C78.5767 26.3522 84.7328 23.4429 93.3562 23.8M76.5765 27.8515C77.1693 26.6673 78.2363 23.469 77.7621 20.1494M76.5765 27.8515C80.5284 27.8528 90.2104 27.2628 94.9526 30.8194" stroke="url(#paint5_linear_213_12657)" stroke-width="0.948443" stroke-linecap="round"/>
<circle cx="76.5765" cy="27.8555" r="1.18555" fill="url(#paint6_radial_213_12657)"/>
<circle cx="76.5765" cy="27.8555" r="0.948443" stroke="#60A80E" stroke-opacity="0.8" stroke-width="0.474221"/>
<path d="M68.2777 26.0772C69.2262 28.9225 68.6729 32.4002 68.2777 33.7833C68.4753 33.1905 69.4633 31.6493 71.8344 30.2266" stroke="url(#paint7_linear_213_12657)" stroke-width="0.711332" stroke-linecap="round"/>
<circle cx="68.2777" cy="33.7833" r="1.18555" fill="url(#paint8_radial_213_12657)"/>
<circle cx="68.2777" cy="33.7833" r="0.948443" stroke="#60A80E" stroke-opacity="0.8" stroke-width="0.474221"/>
<path d="M83.4044 34.8758C80.7394 33.4999 77.2181 33.5101 75.7905 33.6872C76.4067 33.5834 78.0819 32.845 79.8532 30.7217" stroke="url(#paint9_linear_213_12657)" stroke-width="0.711332" stroke-linecap="round"/>
<circle cx="75.943" cy="33.9505" r="1.18555" transform="rotate(81.1273 75.943 33.9505)" fill="url(#paint10_radial_213_12657)"/>
<circle cx="75.943" cy="33.9505" r="0.948443" transform="rotate(81.1273 75.943 33.9505)" stroke="#60A80E" stroke-opacity="0.8" stroke-width="0.474221"/>
<path d="M87.7227 37.6694C83.5733 37.0766 76.46 38.855 74.2983 39.998C74.9144 39.8942 74.6816 41.2261 80.0166 42.4116" stroke="url(#paint11_linear_213_12657)" stroke-width="0.711332" stroke-linecap="round"/>
<circle cx="73.6647" cy="40.2077" r="1.18555" transform="rotate(81.1273 73.6647 40.2077)" fill="url(#paint12_radial_213_12657)"/>
<circle cx="73.6647" cy="40.2077" r="0.948443" transform="rotate(81.1273 73.6647 40.2077)" stroke="#60A80E" stroke-opacity="0.8" stroke-width="0.474221"/>
<path d="M84.8754 24.8916C86.4562 24.8916 91.0403 25.1288 94.3599 26.0772M84.8754 24.8916C85.6658 24.8916 87.4836 25.3659 88.4321 27.2628M84.8754 24.8916C86.061 23.9037 89.1434 21.9278 91.9887 21.9278" stroke="url(#paint13_linear_213_12657)" stroke-width="0.474221" stroke-linecap="round"/>
<circle cx="84.2827" cy="24.8917" r="0.592777" fill="url(#paint14_radial_213_12657)"/>
<circle cx="84.2827" cy="24.8917" r="0.474221" stroke="#60A80E" stroke-opacity="0.4" stroke-width="0.237111"/>
<path d="M71.4658 27.1187C71.9779 25.6232 73.0199 23.1133 73.0199 23.1133M71.4658 27.1187C71.7219 26.3709 75.9838 23.7061 75.9838 23.7061M71.4658 27.1187C70.9152 25.677 70.6488 24.522 70.6488 24.522" stroke="url(#paint15_linear_213_12657)" stroke-width="0.474221" stroke-linecap="round"/>
<circle cx="71.2737" cy="27.6795" r="0.592777" transform="rotate(-71.0967 71.2737 27.6795)" fill="url(#paint16_radial_213_12657)"/>
<circle cx="71.2737" cy="27.6795" r="0.474221" transform="rotate(-71.0967 71.2737 27.6795)" stroke="#60A80E" stroke-opacity="0.4" stroke-width="0.237111"/>
<path d="M92.1744 61.8364C101.495 73.9332 100.226 90.8848 98.4268 97.8485C97.9966 96.4759 96.9448 94.3284 94.7507 93.1982C92.5567 92.0681 87.4169 92.7401 81.6235 89.9742C77.4454 87.9796 70.6556 78.3937 69.2896 71.3128C67.9236 64.232 62.972 56.0563 58.7938 54.9766C65.3423 55.996 82.9993 50.8033 92.1744 61.8364Z" fill="url(#paint17_linear_213_12657)" stroke="url(#paint18_linear_213_12657)" stroke-width="1.18555"/>
<path d="M60.3797 55.5097C61.9984 55.8346 63.2066 55.7269 65.1448 56.3528C69.4182 57.7329 74.2865 59.8715 78.9493 62.8871C84.11 66.2248 89.0189 70.6368 92.5906 76.2838C96.1841 81.9652 98.424 88.8966 98.2048 97.2416" stroke="url(#paint19_linear_213_12657)" stroke-width="1.18555"/>
<path d="M72.3368 59.3564C74.1146 59.3112 81.9879 61.1271 87.287 64.313M72.3368 59.3564C76.5753 62.8065 83.8973 70.9219 85.2934 79.1879M72.3368 59.3564C76.1485 69.34 75.576 74.8098 75.1742 77.6663" stroke="url(#paint20_linear_213_12657)" stroke-width="0.948443" stroke-linecap="round"/>
<circle cx="71.1366" cy="58.794" r="1.42266" transform="rotate(88.5435 71.1366 58.794)" fill="url(#paint21_radial_213_12657)" stroke="#60A80E" stroke-width="0.711332"/>
<path d="M87.4267 69.6462C88.9764 71.6076 92.0412 77.6878 91.9034 86.3175M87.4267 69.6462C88.6256 70.2087 91.85 71.194 95.1564 70.6356M87.4267 69.6462C87.5258 73.5968 88.3618 83.2607 84.9268 88.0918" stroke="url(#paint22_linear_213_12657)" stroke-width="0.948443" stroke-linecap="round"/>
<circle cx="87.4227" cy="69.6463" r="1.18555" transform="rotate(88.5435 87.4227 69.6463)" fill="url(#paint23_radial_213_12657)"/>
<circle cx="87.4227" cy="69.6463" r="0.948443" transform="rotate(88.5435 87.4227 69.6463)" stroke="#60A80E" stroke-opacity="0.8" stroke-width="0.474221"/>
<path d="M88.9895 61.3049C86.1692 62.3253 82.6786 61.8607 81.2859 61.5008C81.8835 61.6832 83.4493 62.6317 84.9318 64.9659" stroke="url(#paint24_linear_213_12657)" stroke-width="0.711332" stroke-linecap="round"/>
<circle cx="81.2859" cy="61.5008" r="1.18555" transform="rotate(88.5435 81.2859 61.5008)" fill="url(#paint25_radial_213_12657)"/>
<circle cx="81.2859" cy="61.5008" r="0.948443" transform="rotate(88.5435 81.2859 61.5008)" stroke="#60A80E" stroke-opacity="0.8" stroke-width="0.474221"/>
<path d="M80.5782 76.6503C81.886 73.9512 81.7863 70.4313 81.5729 69.0087C81.6923 69.622 82.4731 71.2779 84.6407 72.9947" stroke="url(#paint26_linear_213_12657)" stroke-width="0.711332" stroke-linecap="round"/>
<circle cx="81.3137" cy="69.1679" r="1.18555" transform="rotate(169.671 81.3137 69.1679)" fill="url(#paint27_radial_213_12657)"/>
<circle cx="81.3137" cy="69.1679" r="0.948443" transform="rotate(169.671 81.3137 69.1679)" stroke="#60A80E" stroke-opacity="0.8" stroke-width="0.474221"/>
<path d="M77.8953 81.0383C78.3824 76.8751 76.4238 69.8093 75.2263 67.6774C75.3457 68.2907 74.0083 68.0918 72.9587 73.4552" stroke="url(#paint28_linear_213_12657)" stroke-width="0.711332" stroke-linecap="round"/>
<circle cx="75.0005" cy="67.0494" r="1.18555" transform="rotate(169.671 75.0005 67.0494)" fill="url(#paint29_radial_213_12657)"/>
<circle cx="75.0005" cy="67.0494" r="0.948443" transform="rotate(169.671 75.0005 67.0494)" stroke="#60A80E" stroke-opacity="0.8" stroke-width="0.474221"/>
<path d="M90.5966 77.8671C90.6368 79.4474 90.5163 84.036 89.6525 87.3786M90.5966 77.8671C90.6167 78.6572 90.1888 80.4866 88.3166 81.4829M90.5966 77.8671C91.6144 79.0272 93.668 82.0584 93.7403 84.9028" stroke="url(#paint30_linear_213_12657)" stroke-width="0.474221" stroke-linecap="round"/>
<circle cx="90.5815" cy="77.2746" r="0.592777" transform="rotate(88.5435 90.5815 77.2746)" fill="url(#paint31_radial_213_12657)"/>
<circle cx="90.5815" cy="77.2746" r="0.474221" transform="rotate(88.5435 90.5815 77.2746)" stroke="#60A80E" stroke-opacity="0.4" stroke-width="0.237111"/>
<path d="M88.0294 64.5185C89.5374 64.9924 92.073 65.9702 92.073 65.9702M88.0294 64.5185C88.7834 64.7554 91.5557 68.9482 91.5557 68.9482M88.0294 64.5185C89.4566 63.9314 90.6045 63.6357 90.6045 63.6357" stroke="url(#paint32_linear_213_12657)" stroke-width="0.474221" stroke-linecap="round"/>
<circle cx="87.4638" cy="64.3407" r="0.592777" transform="rotate(17.4468 87.4638 64.3407)" fill="url(#paint33_radial_213_12657)"/>
<circle cx="87.4638" cy="64.3407" r="0.474221" transform="rotate(17.4468 87.4638 64.3407)" stroke="#60A80E" stroke-opacity="0.4" stroke-width="0.237111"/>
<path d="M30.5466 48.4468C17.1685 55.8111 11.5576 71.8575 10.4244 78.9601C11.3673 77.8738 13.1896 76.3255 15.6525 76.1663C18.1154 76.007 22.5584 78.6769 28.9744 78.4566C33.6015 78.2977 43.6562 72.2237 47.7379 66.2786C51.8197 60.3335 59.6258 54.8177 63.8874 55.4976C57.477 53.8152 43.3661 41.9993 30.5466 48.4468Z" fill="url(#paint34_linear_213_12657)" stroke="url(#paint35_linear_213_12657)" stroke-width="1.18555"/>
<path d="M62.2206 55.3525C60.6069 55.0035 59.5424 54.422 57.5155 54.2212C53.0467 53.7786 47.7294 53.7937 42.25 54.6948C36.1855 55.6922 29.9225 57.775 24.3918 61.5242C18.8274 65.2963 14.0042 70.7552 10.8704 78.4925" stroke="url(#paint36_linear_213_12657)" stroke-width="1.18555"/>
<path d="M49.7224 54.1006C48.1108 53.3488 40.1678 51.8672 34.037 52.6701M49.7224 54.1006C44.4584 55.5695 34.5035 60.0829 29.9205 67.1024M49.7224 54.1006C42.2388 61.7293 40.5778 66.9722 39.8046 69.7512" stroke="url(#paint37_linear_213_12657)" stroke-width="0.948443" stroke-linecap="round"/>
<circle cx="1.77833" cy="1.77833" r="1.42266" transform="matrix(-0.422778 0.906233 0.906233 0.422778 50.1876 51.7012)" fill="url(#paint38_radial_213_12657)" stroke="#60A80E" stroke-width="0.711332"/>
<path d="M31.7779 57.5031C29.5736 58.6818 24.3344 63.0308 21.0122 70.9966M31.7779 57.5031C30.4541 57.5396 27.1046 57.1544 24.2968 55.3212M31.7779 57.5031C30.1084 61.085 25.4803 69.6097 26.6985 75.4109" stroke="url(#paint39_linear_213_12657)" stroke-width="0.948443" stroke-linecap="round"/>
<circle cx="1.18555" cy="1.18555" r="1.18555" transform="matrix(-0.422778 0.906233 0.906233 0.422778 31.2084 55.9292)" fill="url(#paint40_radial_213_12657)"/>
<circle cx="1.18555" cy="1.18555" r="0.948443" transform="matrix(-0.422778 0.906233 0.906233 0.422778 31.2084 55.9292)" stroke="#60A80E" stroke-opacity="0.8" stroke-width="0.474221"/>
<path d="M33.6785 49.2323C35.8561 51.2947 39.2415 52.2636 40.6621 52.4902C40.0413 52.4187 38.2269 52.6624 35.9352 54.2097" stroke="url(#paint41_linear_213_12657)" stroke-width="0.711332" stroke-linecap="round"/>
<circle cx="1.18555" cy="1.18555" r="1.18555" transform="matrix(-0.422778 0.906233 0.906233 0.422778 40.0889 50.9146)" fill="url(#paint42_radial_213_12657)"/>
<circle cx="1.18555" cy="1.18555" r="0.948443" transform="matrix(-0.422778 0.906233 0.906233 0.422778 40.0889 50.9146)" stroke="#60A80E" stroke-opacity="0.8" stroke-width="0.474221"/>
<path d="M35.2569 66.6604C35.1367 63.6636 36.6347 60.4768 37.3987 59.258C37.0442 59.7725 35.6668 60.9784 32.9937 61.6859" stroke="url(#paint43_linear_213_12657)" stroke-width="0.711332" stroke-linecap="round"/>
<circle cx="1.18555" cy="1.18555" r="1.18555" transform="matrix(0.83018 0.557496 0.557496 -0.83018 35.9277 59.8308)" fill="url(#paint44_radial_213_12657)"/>
<circle cx="1.18555" cy="1.18555" r="0.948443" transform="matrix(0.83018 0.557496 0.557496 -0.83018 35.9277 59.8308)" stroke="#60A80E" stroke-opacity="0.8" stroke-width="0.474221"/>
<path d="M35.9629 71.7549C37.18 67.7439 41.7989 62.0495 43.7486 60.5737C43.3941 61.0882 44.6995 61.4403 43.5184 66.7763" stroke="url(#paint45_linear_213_12657)" stroke-width="0.711332" stroke-linecap="round"/>
<circle cx="1.18555" cy="1.18555" r="1.18555" transform="matrix(0.83018 0.557496 0.557496 -0.83018 42.5614 60.4115)" fill="url(#paint46_radial_213_12657)"/>
<circle cx="1.18555" cy="1.18555" r="0.948443" transform="matrix(0.83018 0.557496 0.557496 -0.83018 42.5614 60.4115)" stroke="#60A80E" stroke-opacity="0.8" stroke-width="0.474221"/>
<path d="M25.587 63.7725C24.9187 65.205 23.1955 69.4595 22.6516 72.8688M25.587 63.7725C25.2528 64.4887 24.914 66.3366 26.2321 67.9981M25.587 63.7725C24.1904 64.4292 21.0966 66.3872 19.8936 68.9657" stroke="url(#paint47_linear_213_12657)" stroke-width="0.474221" stroke-linecap="round"/>
<circle cx="0.592777" cy="0.592777" r="0.592777" transform="matrix(-0.422778 0.906233 0.906233 0.422778 25.551 62.4475)" fill="url(#paint48_radial_213_12657)"/>
<circle cx="0.592777" cy="0.592777" r="0.474221" transform="matrix(-0.422778 0.906233 0.906233 0.422778 25.551 62.4475)" stroke="#60A80E" stroke-opacity="0.4" stroke-width="0.237111"/>
<path d="M33.2745 52.5617C31.7027 52.3936 28.9877 52.2767 28.9877 52.2767M33.2745 52.5617C32.4886 52.4777 28.2718 55.2133 28.2718 55.2133M33.2745 52.5617C32.2008 51.4533 31.2667 50.7235 31.2667 50.7235" stroke="url(#paint49_linear_213_12657)" stroke-width="0.474221" stroke-linecap="round"/>
<circle cx="0.592777" cy="0.592777" r="0.592777" transform="matrix(-0.994325 -0.106381 -0.106381 0.994325 34.5164 52.0985)" fill="url(#paint50_radial_213_12657)"/>
<circle cx="0.592777" cy="0.592777" r="0.474221" transform="matrix(-0.994325 -0.106381 -0.106381 0.994325 34.5164 52.0985)" stroke="#60A80E" stroke-opacity="0.4" stroke-width="0.237111"/>
<circle cx="61.7572" cy="55.716" r="2.37111" fill="url(#paint51_radial_213_12657)" stroke="#60A80E" stroke-width="1.18555"/>
<defs>
<linearGradient id="paint0_linear_213_12657" x1="95.5454" y1="7.70112" x2="138.225" y2="39.7111" gradientUnits="userSpaceOnUse">
<stop offset="0.104904" stop-color="white"/>
<stop offset="0.590577" stop-color="#66AB17"/>
</linearGradient>
<linearGradient id="paint1_linear_213_12657" x1="74.2055" y1="42.0822" x2="116.885" y2="12.4433" gradientUnits="userSpaceOnUse">
<stop stop-color="#60A80E"/>
<stop offset="1" stop-color="white"/>
</linearGradient>
<linearGradient id="paint2_linear_213_12657" x1="128.148" y1="9.47945" x2="53.4583" y2="43.8605" gradientUnits="userSpaceOnUse">
<stop stop-color="white"/>
<stop offset="1" stop-color="#60A80E"/>
</linearGradient>
<linearGradient id="paint3_linear_213_12657" x1="68.8693" y1="41.4894" x2="85.4693" y2="27.8555" gradientUnits="userSpaceOnUse">
<stop stop-color="#60A80E"/>
<stop offset="1" stop-color="white"/>
</linearGradient>
<radialGradient id="paint4_radial_213_12657" cx="0" cy="0" r="1" gradientUnits="userSpaceOnUse" gradientTransform="translate(65.3138 43.8605) rotate(90) scale(1.77833)">
<stop stop-color="#60A80E"/>
<stop offset="1" stop-color="white"/>
</radialGradient>
<linearGradient id="paint5_linear_213_12657" x1="74.2054" y1="30.2266" x2="94.7365" y2="16.2372" gradientUnits="userSpaceOnUse">
<stop stop-color="#60A80E"/>
<stop offset="1" stop-color="white"/>
</linearGradient>
<radialGradient id="paint6_radial_213_12657" cx="0" cy="0" r="1" gradientUnits="userSpaceOnUse" gradientTransform="translate(76.5765 27.8555) rotate(90) scale(1.18555)">
<stop stop-color="#60A80E"/>
<stop offset="1" stop-color="white"/>
</radialGradient>
<linearGradient id="paint7_linear_213_12657" x1="68.2777" y1="33.6961" x2="71.8344" y2="26.1644" gradientUnits="userSpaceOnUse">
<stop stop-color="#60A80E"/>
<stop offset="1" stop-color="white"/>
</linearGradient>
<radialGradient id="paint8_radial_213_12657" cx="0" cy="0" r="1" gradientUnits="userSpaceOnUse" gradientTransform="translate(68.2777 33.7833) rotate(90) scale(1.18555)">
<stop stop-color="#60A80E"/>
<stop offset="1" stop-color="white"/>
</radialGradient>
<linearGradient id="paint9_linear_213_12657" x1="75.8767" y1="33.7007" x2="83.8668" y2="31.3483" gradientUnits="userSpaceOnUse">
<stop stop-color="#60A80E"/>
<stop offset="1" stop-color="white"/>
</linearGradient>
<radialGradient id="paint10_radial_213_12657" cx="0" cy="0" r="1" gradientUnits="userSpaceOnUse" gradientTransform="translate(75.943 33.9505) rotate(90) scale(1.18555)">
<stop stop-color="#60A80E"/>
<stop offset="1" stop-color="white"/>
</radialGradient>
<linearGradient id="paint11_linear_213_12657" x1="69.9394" y1="38.855" x2="90.0938" y2="35.8911" gradientUnits="userSpaceOnUse">
<stop stop-color="#60A80E"/>
<stop offset="1" stop-color="white"/>
</linearGradient>
<radialGradient id="paint12_radial_213_12657" cx="0" cy="0" r="1" gradientUnits="userSpaceOnUse" gradientTransform="translate(73.6647 40.2077) rotate(90) scale(1.18555)">
<stop stop-color="#60A80E"/>
<stop offset="1" stop-color="white"/>
</radialGradient>
<linearGradient id="paint13_linear_213_12657" x1="71.8343" y1="29.6339" x2="99.1021" y2="21.9278" gradientUnits="userSpaceOnUse">
<stop stop-color="#60A80E"/>
<stop offset="1" stop-color="white"/>
</linearGradient>
<radialGradient id="paint14_radial_213_12657" cx="0" cy="0" r="1" gradientUnits="userSpaceOnUse" gradientTransform="translate(84.2827 24.8917) rotate(90) scale(0.592777)">
<stop stop-color="#60A80E"/>
<stop offset="1" stop-color="white"/>
</radialGradient>
<linearGradient id="paint15_linear_213_12657" x1="70.6488" y1="30.8194" x2="73.0199" y2="21.335" gradientUnits="userSpaceOnUse">
<stop stop-color="#60A80E"/>
<stop offset="1" stop-color="white"/>
</linearGradient>
<radialGradient id="paint16_radial_213_12657" cx="0" cy="0" r="1" gradientUnits="userSpaceOnUse" gradientTransform="translate(71.2737 27.6795) rotate(90) scale(0.592777)">
<stop stop-color="#60A80E"/>
<stop offset="1" stop-color="white"/>
</radialGradient>
<linearGradient id="paint17_linear_213_12657" x1="131.112" y1="85.9477" x2="78.9477" y2="72.9066" gradientUnits="userSpaceOnUse">
<stop stop-color="#60A80E"/>
<stop offset="0.908833" stop-color="white"/>
</linearGradient>
<linearGradient id="paint18_linear_213_12657" x1="73.1404" y1="67.6376" x2="103.854" y2="109.55" gradientUnits="userSpaceOnUse">
<stop stop-color="#60A80E"/>
<stop offset="1" stop-color="white"/>
</linearGradient>
<linearGradient id="paint19_linear_213_12657" x1="107.104" y1="120.734" x2="70.8353" y2="46.9423" gradientUnits="userSpaceOnUse">
<stop stop-color="white"/>
<stop offset="1" stop-color="#60A80E"/>
</linearGradient>
<linearGradient id="paint20_linear_213_12657" x1="73.5973" y1="62.2881" x2="87.6487" y2="78.5362" gradientUnits="userSpaceOnUse">
<stop stop-color="#60A80E"/>
<stop offset="1" stop-color="white"/>
</linearGradient>
<radialGradient id="paint21_radial_213_12657" cx="0" cy="0" r="1" gradientUnits="userSpaceOnUse" gradientTransform="translate(71.1366 58.794) rotate(90) scale(1.77833)">
<stop stop-color="#60A80E"/>
<stop offset="1" stop-color="white"/>
</radialGradient>
<linearGradient id="paint22_linear_213_12657" x1="84.9921" y1="67.3362" x2="99.4988" y2="87.5051" gradientUnits="userSpaceOnUse">
<stop stop-color="#60A80E"/>
<stop offset="1" stop-color="white"/>
</linearGradient>
<radialGradient id="paint23_radial_213_12657" cx="0" cy="0" r="1" gradientUnits="userSpaceOnUse" gradientTransform="translate(87.4227 69.6463) rotate(90) scale(1.18555)">
<stop stop-color="#60A80E"/>
<stop offset="1" stop-color="white"/>
</radialGradient>
<linearGradient id="paint24_linear_213_12657" x1="81.3731" y1="61.4985" x2="88.9927" y2="64.8626" gradientUnits="userSpaceOnUse">
<stop stop-color="#60A80E"/>
<stop offset="1" stop-color="white"/>
</linearGradient>
<radialGradient id="paint25_radial_213_12657" cx="0" cy="0" r="1" gradientUnits="userSpaceOnUse" gradientTransform="translate(81.2859 61.5008) rotate(90) scale(1.18555)">
<stop stop-color="#60A80E"/>
<stop offset="1" stop-color="white"/>
</radialGradient>
<linearGradient id="paint26_linear_213_12657" x1="81.5617" y1="69.0952" x2="84.1164" y2="77.0229" gradientUnits="userSpaceOnUse">
<stop stop-color="#60A80E"/>
<stop offset="1" stop-color="white"/>
</linearGradient>
<radialGradient id="paint27_radial_213_12657" cx="0" cy="0" r="1" gradientUnits="userSpaceOnUse" gradientTransform="translate(81.3137 69.1679) rotate(90) scale(1.18555)">
<stop stop-color="#60A80E"/>
<stop offset="1" stop-color="white"/>
</radialGradient>
<linearGradient id="paint28_linear_213_12657" x1="76.2581" y1="63.2909" x2="79.7333" y2="83.3634" gradientUnits="userSpaceOnUse">
<stop stop-color="#60A80E"/>
<stop offset="1" stop-color="white"/>
</linearGradient>
<radialGradient id="paint29_radial_213_12657" cx="0" cy="0" r="1" gradientUnits="userSpaceOnUse" gradientTransform="translate(75.0005 67.0494) rotate(90) scale(1.18555)">
<stop stop-color="#60A80E"/>
<stop offset="1" stop-color="white"/>
</radialGradient>
<linearGradient id="paint30_linear_213_12657" x1="85.5244" y1="64.9508" x2="93.9211" y2="92.0138" gradientUnits="userSpaceOnUse">
<stop stop-color="#60A80E"/>
<stop offset="1" stop-color="white"/>
</linearGradient>
<radialGradient id="paint31_radial_213_12657" cx="0" cy="0" r="1" gradientUnits="userSpaceOnUse" gradientTransform="translate(90.5815 77.2746) rotate(90) scale(0.592777)">
<stop stop-color="#60A80E"/>
<stop offset="1" stop-color="white"/>
</radialGradient>
<linearGradient id="paint32_linear_213_12657" x1="84.3091" y1="63.7958" x2="93.8507" y2="65.925" gradientUnits="userSpaceOnUse">
<stop stop-color="#60A80E"/>
<stop offset="1" stop-color="white"/>
</linearGradient>
<radialGradient id="paint33_radial_213_12657" cx="0" cy="0" r="1" gradientUnits="userSpaceOnUse" gradientTransform="translate(87.4638 64.3407) rotate(90) scale(0.592777)">
<stop stop-color="#60A80E"/>
<stop offset="1" stop-color="white"/>
</radialGradient>
<linearGradient id="paint34_linear_213_12657" x1="-9.96888" y1="71.721" x2="14.335" y2="84.1693" gradientUnits="userSpaceOnUse">
<stop stop-color="#60A80E"/>
<stop offset="1" stop-color="white"/>
</linearGradient>
<linearGradient id="paint35_linear_213_12657" x1="45.6766" y1="61.3707" x2="0.772821" y2="87.5181" gradientUnits="userSpaceOnUse">
<stop stop-color="#60A80E"/>
<stop offset="1" stop-color="white"/>
</linearGradient>
<linearGradient id="paint36_linear_213_12657" x1="-6.67479" y1="96.4717" x2="56.0597" y2="43.3208" gradientUnits="userSpaceOnUse">
<stop stop-color="white"/>
<stop offset="1" stop-color="#60A80E"/>
</linearGradient>
<linearGradient id="paint37_linear_213_12657" x1="47.3954" y1="56.2844" x2="28.0218" y2="65.5637" gradientUnits="userSpaceOnUse">
<stop stop-color="#60A80E"/>
<stop offset="1" stop-color="white"/>
</linearGradient>
<radialGradient id="paint38_radial_213_12657" cx="0" cy="0" r="1" gradientUnits="userSpaceOnUse" gradientTransform="translate(1.77833 1.77833) rotate(90) scale(1.77833)">
<stop stop-color="#60A80E"/>
<stop offset="1" stop-color="white"/>
</radialGradient>
<linearGradient id="paint39_linear_213_12657" x1="34.9328" y1="56.3585" x2="13.575" y2="69.05" gradientUnits="userSpaceOnUse">
<stop stop-color="#60A80E"/>
<stop offset="1" stop-color="white"/>
</linearGradient>
<radialGradient id="paint40_radial_213_12657" cx="0" cy="0" r="1" gradientUnits="userSpaceOnUse" gradientTransform="translate(1.18555 1.18555) rotate(90) scale(1.18555)">
<stop stop-color="#60A80E"/>
<stop offset="1" stop-color="white"/>
</radialGradient>
<linearGradient id="paint41_linear_213_12657" x1="40.583" y1="52.4533" x2="32.2539" y2="52.4923" gradientUnits="userSpaceOnUse">
<stop stop-color="#60A80E"/>
<stop offset="1" stop-color="white"/>
</linearGradient>
<radialGradient id="paint42_radial_213_12657" cx="0" cy="0" r="1" gradientUnits="userSpaceOnUse" gradientTransform="translate(1.18555 1.18555) rotate(90) scale(1.18555)">
<stop stop-color="#60A80E"/>
<stop offset="1" stop-color="white"/>
</radialGradient>
<linearGradient id="paint43_linear_213_12657" x1="37.3745" y1="59.3417" x2="31.8646" y2="65.5881" gradientUnits="userSpaceOnUse">
<stop stop-color="#60A80E"/>
<stop offset="1" stop-color="white"/>
</linearGradient>
<radialGradient id="paint44_radial_213_12657" cx="0" cy="0" r="1" gradientUnits="userSpaceOnUse" gradientTransform="translate(1.18555 1.18555) rotate(90) scale(1.18555)">
<stop stop-color="#60A80E"/>
<stop offset="1" stop-color="white"/>
</radialGradient>
<linearGradient id="paint45_linear_213_12657" x1="44.5556" y1="56.1403" x2="33.3488" y2="73.1519" gradientUnits="userSpaceOnUse">
<stop stop-color="#60A80E"/>
<stop offset="1" stop-color="white"/>
</linearGradient>
<radialGradient id="paint46_radial_213_12657" cx="0" cy="0" r="1" gradientUnits="userSpaceOnUse" gradientTransform="translate(1.18555 1.18555) rotate(90) scale(1.18555)">
<stop stop-color="#60A80E"/>
<stop offset="1" stop-color="white"/>
</radialGradient>
<linearGradient id="paint47_linear_213_12657" x1="35.398" y1="53.9591" x2="16.8863" y2="75.4121" gradientUnits="userSpaceOnUse">
<stop stop-color="#60A80E"/>
<stop offset="1" stop-color="white"/>
</linearGradient>
<radialGradient id="paint48_radial_213_12657" cx="0" cy="0" r="1" gradientUnits="userSpaceOnUse" gradientTransform="translate(0.592777 0.592777) rotate(90) scale(0.592777)">
<stop stop-color="#60A80E"/>
<stop offset="1" stop-color="white"/>
</radialGradient>
<linearGradient id="paint49_linear_213_12657" x1="36.9737" y1="53.3859" x2="27.3761" y2="51.5249" gradientUnits="userSpaceOnUse">
<stop stop-color="#60A80E"/>
<stop offset="1" stop-color="white"/>
</linearGradient>
<radialGradient id="paint50_radial_213_12657" cx="0" cy="0" r="1" gradientUnits="userSpaceOnUse" gradientTransform="translate(0.592777 0.592777) rotate(90) scale(0.592777)">
<stop stop-color="#60A80E"/>
<stop offset="1" stop-color="white"/>
</radialGradient>
<radialGradient id="paint51_radial_213_12657" cx="0" cy="0" r="1" gradientUnits="userSpaceOnUse" gradientTransform="translate(61.7572 55.7161) rotate(90) scale(2.96388)">
<stop stop-color="#60A80E"/>
<stop offset="1" stop-color="white"/>
</radialGradient>
</defs>
</svg>
