<svg width="454" height="85" viewBox="0 0 454 85" fill="none" xmlns="http://www.w3.org/2000/svg">
<path d="M115.26 67V22.6375H135.413C140.23 22.6375 144.476 23.567 148.152 25.426C151.828 27.2427 154.701 29.7989 156.771 33.0944C158.841 36.3899 159.876 40.298 159.876 44.8187C159.876 49.2972 158.841 53.2054 156.771 56.5431C154.701 59.8386 151.828 62.4159 148.152 64.2749C144.476 66.0916 140.23 67 135.413 67H115.26ZM125.527 58.5711H134.906C137.864 58.5711 140.42 58.0219 142.575 56.9234C144.772 55.7826 146.462 54.1771 147.645 52.1069C148.87 50.0366 149.483 47.6072 149.483 44.8187C149.483 41.988 148.87 39.5586 147.645 37.5306C146.462 35.4604 144.772 33.876 142.575 32.7775C140.42 31.6367 137.864 31.0664 134.906 31.0664H125.527V58.5711ZM177.062 40.5092H198.419V48.4945H177.062V40.5092ZM177.822 58.7612H201.968V67H167.619V22.6375H201.144V30.8762H177.822V58.7612ZM210.137 67V22.6375H229.34C233.311 22.6375 236.733 23.2924 239.606 24.6021C242.479 25.8696 244.697 27.7075 246.261 30.1157C247.824 32.524 248.606 35.397 248.606 38.7347C248.606 42.0302 247.824 44.8821 246.261 47.2904C244.697 49.6986 242.479 51.5576 239.606 52.8674C236.733 54.1349 233.311 54.7686 229.34 54.7686H215.841L220.404 50.1422V67H210.137ZM220.404 51.283L215.841 46.4031H228.769C231.938 46.4031 234.304 45.7271 235.867 44.3751C237.43 43.0231 238.212 41.143 238.212 38.7347C238.212 36.2842 237.43 34.383 235.867 33.031C234.304 31.679 231.938 31.003 228.769 31.003H215.841L220.404 26.1231V51.283ZM255.935 67V22.6375H275.138C279.109 22.6375 282.532 23.2924 285.405 24.6021C288.278 25.8696 290.496 27.7075 292.059 30.1157C293.622 32.524 294.404 35.397 294.404 38.7347C294.404 42.0302 293.622 44.8821 292.059 47.2904C290.496 49.6564 288.278 51.4731 285.405 52.7406C282.532 54.0081 279.109 54.6419 275.138 54.6419H261.639L266.202 50.1422V67H255.935ZM284.137 67L273.047 50.9027H284.01L295.228 67H284.137ZM266.202 51.283L261.639 46.4665H274.568C277.736 46.4665 280.102 45.7905 281.666 44.4385C283.229 43.0442 284.01 41.143 284.01 38.7347C284.01 36.2842 283.229 34.383 281.666 33.031C280.102 31.679 277.736 31.003 274.568 31.003H261.639L266.202 26.1231V51.283ZM296.708 67L316.481 22.6375H326.621L346.457 67H335.683L319.459 27.8342H323.515L307.228 67H296.708ZM306.594 57.4937L309.319 49.6986H332.134L334.923 57.4937H306.594ZM351.06 67V22.6375H359.552L385.726 54.5785H381.606V22.6375H391.746V67H383.318L357.08 35.059H361.2V67H351.06ZM411.432 56.86L410.861 45.0089L432.092 22.6375H443.5L424.36 43.2344L418.657 49.3184L411.432 56.86ZM402.242 67V22.6375H412.446V67H402.242ZM432.599 67L416.819 47.6706L423.536 40.3825L444.577 67H432.599Z" fill="#111111"/>
<path d="M180.688 45H163.625V51.0938H180.688V45Z" fill="white"/>
<path d="M251.375 37.6875H227V43.7812H251.375V37.6875Z" fill="white"/>
<path d="M341.562 49.875H317.188V55.9688H341.562V49.875Z" fill="white"/>
<path d="M59.89 7.90683C72.2197 -1.10338 89.1336 0.595918 96.0494 2.57184C94.6662 2.96703 92.4927 3.96388 91.3072 6.1285C90.1216 8.29312 90.6627 13.4483 87.7505 19.1696C85.6503 23.2956 75.895 29.8396 68.7816 31.0251C61.6683 32.2107 53.3694 36.9529 52.1839 41.1023C53.3694 34.5818 48.6272 16.7985 59.89 7.90683Z" fill="url(#paint0_linear_259_12511)" stroke="url(#paint1_linear_259_12511)" stroke-width="1.18555"/>
<path d="M52.7571 39.5305C53.123 37.9205 53.0461 36.71 53.7211 34.7883C55.2093 30.5514 57.471 25.739 60.6042 21.1544C64.072 16.0802 68.6073 11.285 74.3432 7.85804C80.1142 4.4101 87.1003 2.34712 95.437 2.77833" stroke="url(#paint2_linear_259_12511)" stroke-width="1.18555"/>
<path d="M56.9066 27.675C56.9066 25.8966 58.922 18.072 62.2415 12.8555M56.9066 27.675C60.4632 23.5255 68.7621 16.4122 77.061 15.2266M56.9066 27.675C66.9838 24.1183 72.4373 24.8296 75.2826 25.3038" stroke="url(#paint3_linear_259_12511)" stroke-width="0.948443" stroke-linecap="round"/>
<circle cx="56.3138" cy="28.8605" r="1.42266" fill="url(#paint4_radial_259_12511)" stroke="#60A80E" stroke-width="0.711332"/>
<path d="M67.5765 12.8515C69.5767 11.3522 75.7328 8.44291 84.3562 8.79996M67.5765 12.8515C68.1693 11.6673 69.2363 8.46899 68.7621 5.14944M67.5765 12.8515C71.5284 12.8528 81.2104 12.2628 85.9526 15.8194" stroke="url(#paint5_linear_259_12511)" stroke-width="0.948443" stroke-linecap="round"/>
<circle cx="67.5765" cy="12.8555" r="1.18555" fill="url(#paint6_radial_259_12511)"/>
<circle cx="67.5765" cy="12.8555" r="0.948443" stroke="#60A80E" stroke-opacity="0.8" stroke-width="0.474221"/>
<path d="M59.2776 11.0772C60.2261 13.9225 59.6728 17.4002 59.2776 18.7833C59.4752 18.1905 60.4632 16.6493 62.8343 15.2266" stroke="url(#paint7_linear_259_12511)" stroke-width="0.711332" stroke-linecap="round"/>
<circle cx="59.2777" cy="18.7833" r="1.18555" fill="url(#paint8_radial_259_12511)"/>
<circle cx="59.2777" cy="18.7833" r="0.948443" stroke="#60A80E" stroke-opacity="0.8" stroke-width="0.474221"/>
<path d="M74.4044 19.8758C71.7394 18.4999 68.2181 18.5101 66.7905 18.6872C67.4067 18.5834 69.0819 17.845 70.8532 15.7217" stroke="url(#paint9_linear_259_12511)" stroke-width="0.711332" stroke-linecap="round"/>
<circle cx="66.943" cy="18.9505" r="1.18555" transform="rotate(81.1273 66.943 18.9505)" fill="url(#paint10_radial_259_12511)"/>
<circle cx="66.943" cy="18.9505" r="0.948443" transform="rotate(81.1273 66.943 18.9505)" stroke="#60A80E" stroke-opacity="0.8" stroke-width="0.474221"/>
<path d="M78.7227 22.6694C74.5732 22.0766 67.4599 23.855 65.2982 24.998C65.9144 24.8942 65.6816 26.2261 71.0166 27.4116" stroke="url(#paint11_linear_259_12511)" stroke-width="0.711332" stroke-linecap="round"/>
<circle cx="64.6647" cy="25.2077" r="1.18555" transform="rotate(81.1273 64.6647 25.2077)" fill="url(#paint12_radial_259_12511)"/>
<circle cx="64.6647" cy="25.2077" r="0.948443" transform="rotate(81.1273 64.6647 25.2077)" stroke="#60A80E" stroke-opacity="0.8" stroke-width="0.474221"/>
<path d="M75.8754 9.89165C77.4562 9.89165 82.0403 10.1288 85.3599 11.0772M75.8754 9.89165C76.6658 9.89165 78.4836 10.3659 79.4321 12.2628M75.8754 9.89165C77.061 8.90369 80.1434 6.92777 82.9887 6.92777" stroke="url(#paint13_linear_259_12511)" stroke-width="0.474221" stroke-linecap="round"/>
<circle cx="75.2827" cy="9.89165" r="0.592777" fill="url(#paint14_radial_259_12511)"/>
<circle cx="75.2827" cy="9.89165" r="0.474221" stroke="#60A80E" stroke-opacity="0.4" stroke-width="0.237111"/>
<path d="M62.4658 12.1187C62.9779 10.6232 64.0199 8.11332 64.0199 8.11332M62.4658 12.1187C62.7219 11.3709 66.9838 8.7061 66.9838 8.7061M62.4658 12.1187C61.9152 10.677 61.6488 9.52201 61.6488 9.52201" stroke="url(#paint15_linear_259_12511)" stroke-width="0.474221" stroke-linecap="round"/>
<circle cx="62.2737" cy="12.6795" r="0.592777" transform="rotate(-71.0967 62.2737 12.6795)" fill="url(#paint16_radial_259_12511)"/>
<circle cx="62.2737" cy="12.6795" r="0.474221" transform="rotate(-71.0967 62.2737 12.6795)" stroke="#60A80E" stroke-opacity="0.4" stroke-width="0.237111"/>
<path d="M83.1744 46.8364C92.4951 58.9332 91.2263 75.8848 89.4268 82.8485C88.9966 81.4759 87.9448 79.3284 85.7507 78.1982C83.5567 77.0681 78.4169 77.7401 72.6235 74.9742C68.4454 72.9796 61.6556 63.3937 60.2896 56.3128C58.9236 49.2319 53.972 41.0563 49.7938 39.9766C56.3423 40.996 73.9993 35.8033 83.1744 46.8364Z" fill="url(#paint17_linear_259_12511)" stroke="url(#paint18_linear_259_12511)" stroke-width="1.18555"/>
<path d="M51.3797 40.5097C52.9984 40.8345 54.2066 40.7269 56.1448 41.3528C60.4182 42.7329 65.2865 44.8715 69.9493 47.8871C75.11 51.2248 80.0189 55.6368 83.5906 61.2837C87.1841 66.9652 89.424 73.8966 89.2048 82.2416" stroke="url(#paint19_linear_259_12511)" stroke-width="1.18555"/>
<path d="M63.3368 44.3564C65.1146 44.3112 72.9879 46.1271 78.287 49.313M63.3368 44.3564C67.5753 47.8065 74.8973 55.9219 76.2934 64.1879M63.3368 44.3564C67.1485 54.34 66.576 59.8098 66.1742 62.6663" stroke="url(#paint20_linear_259_12511)" stroke-width="0.948443" stroke-linecap="round"/>
<circle cx="62.1366" cy="43.794" r="1.42266" transform="rotate(88.5435 62.1366 43.794)" fill="url(#paint21_radial_259_12511)" stroke="#60A80E" stroke-width="0.711332"/>
<path d="M78.4267 54.6462C79.9764 56.6076 83.0412 62.6878 82.9034 71.3175M78.4267 54.6462C79.6256 55.2087 82.85 56.194 86.1564 55.6356M78.4267 54.6462C78.5258 58.5968 79.3618 68.2607 75.9268 73.0918" stroke="url(#paint22_linear_259_12511)" stroke-width="0.948443" stroke-linecap="round"/>
<circle cx="78.4227" cy="54.6463" r="1.18555" transform="rotate(88.5435 78.4227 54.6463)" fill="url(#paint23_radial_259_12511)"/>
<circle cx="78.4227" cy="54.6463" r="0.948443" transform="rotate(88.5435 78.4227 54.6463)" stroke="#60A80E" stroke-opacity="0.8" stroke-width="0.474221"/>
<path d="M79.9895 46.3049C77.1692 47.3253 73.6786 46.8607 72.2859 46.5008C72.8835 46.6832 74.4493 47.6317 75.9318 49.9659" stroke="url(#paint24_linear_259_12511)" stroke-width="0.711332" stroke-linecap="round"/>
<circle cx="72.2859" cy="46.5008" r="1.18555" transform="rotate(88.5435 72.2859 46.5008)" fill="url(#paint25_radial_259_12511)"/>
<circle cx="72.2859" cy="46.5008" r="0.948443" transform="rotate(88.5435 72.2859 46.5008)" stroke="#60A80E" stroke-opacity="0.8" stroke-width="0.474221"/>
<path d="M71.5782 61.6503C72.886 58.9512 72.7863 55.4313 72.5729 54.0087C72.6923 54.622 73.4731 56.2779 75.6407 57.9947" stroke="url(#paint26_linear_259_12511)" stroke-width="0.711332" stroke-linecap="round"/>
<circle cx="72.3137" cy="54.1679" r="1.18555" transform="rotate(169.671 72.3137 54.1679)" fill="url(#paint27_radial_259_12511)"/>
<circle cx="72.3137" cy="54.1679" r="0.948443" transform="rotate(169.671 72.3137 54.1679)" stroke="#60A80E" stroke-opacity="0.8" stroke-width="0.474221"/>
<path d="M68.8953 66.0383C69.3824 61.8751 67.4238 54.8093 66.2263 52.6774C66.3457 53.2907 65.0083 53.0918 63.9587 58.4552" stroke="url(#paint28_linear_259_12511)" stroke-width="0.711332" stroke-linecap="round"/>
<circle cx="66.0005" cy="52.0494" r="1.18555" transform="rotate(169.671 66.0005 52.0494)" fill="url(#paint29_radial_259_12511)"/>
<circle cx="66.0005" cy="52.0494" r="0.948443" transform="rotate(169.671 66.0005 52.0494)" stroke="#60A80E" stroke-opacity="0.8" stroke-width="0.474221"/>
<path d="M81.5966 62.8671C81.6368 64.4474 81.5163 69.036 80.6525 72.3786M81.5966 62.8671C81.6167 63.6572 81.1888 65.4866 79.3166 66.4829M81.5966 62.8671C82.6144 64.0272 84.668 67.0584 84.7403 69.9028" stroke="url(#paint30_linear_259_12511)" stroke-width="0.474221" stroke-linecap="round"/>
<circle cx="81.5815" cy="62.2745" r="0.592777" transform="rotate(88.5435 81.5815 62.2745)" fill="url(#paint31_radial_259_12511)"/>
<circle cx="81.5815" cy="62.2745" r="0.474221" transform="rotate(88.5435 81.5815 62.2745)" stroke="#60A80E" stroke-opacity="0.4" stroke-width="0.237111"/>
<path d="M79.0294 49.5184C80.5374 49.9924 83.073 50.9702 83.073 50.9702M79.0294 49.5184C79.7834 49.7554 82.5557 53.9482 82.5557 53.9482M79.0294 49.5184C80.4566 48.9314 81.6045 48.6357 81.6045 48.6357" stroke="url(#paint32_linear_259_12511)" stroke-width="0.474221" stroke-linecap="round"/>
<circle cx="78.4638" cy="49.3407" r="0.592777" transform="rotate(17.4468 78.4638 49.3407)" fill="url(#paint33_radial_259_12511)"/>
<circle cx="78.4638" cy="49.3407" r="0.474221" transform="rotate(17.4468 78.4638 49.3407)" stroke="#60A80E" stroke-opacity="0.4" stroke-width="0.237111"/>
<path d="M21.5466 33.4468C8.16849 40.8111 2.55763 56.8575 1.42446 63.9601C2.36735 62.8738 4.18965 61.3255 6.65253 61.1663C9.1154 61.007 13.5584 63.6769 19.9745 63.4566C24.6015 63.2977 34.6562 57.2237 38.738 51.2786C42.8197 45.3335 50.6258 39.8177 54.8874 40.4976C48.4771 38.8153 34.3661 26.9993 21.5466 33.4468Z" fill="url(#paint34_linear_259_12511)" stroke="url(#paint35_linear_259_12511)" stroke-width="1.18555"/>
<path d="M53.2206 40.3525C51.6069 40.0035 50.5424 39.422 48.5155 39.2212C44.0467 38.7786 38.7294 38.7937 33.25 39.6948C27.1855 40.6922 20.9225 42.775 15.3919 46.5242C9.8274 50.2963 5.00427 55.7552 1.87047 63.4925" stroke="url(#paint36_linear_259_12511)" stroke-width="1.18555"/>
<path d="M40.7225 39.1006C39.1109 38.3488 31.1678 36.8672 25.0371 37.6701M40.7225 39.1006C35.4584 40.5695 25.5035 45.0829 20.9205 52.1024M40.7225 39.1006C33.2389 46.7293 31.5779 51.9722 30.8047 54.7512" stroke="url(#paint37_linear_259_12511)" stroke-width="0.948443" stroke-linecap="round"/>
<circle cx="1.77833" cy="1.77833" r="1.42266" transform="matrix(-0.422778 0.906233 0.906233 0.422778 41.1877 36.7013)" fill="url(#paint38_radial_259_12511)" stroke="#60A80E" stroke-width="0.711332"/>
<path d="M22.7779 42.5031C20.5736 43.6818 15.3344 48.0308 12.0122 55.9966M22.7779 42.5031C21.4541 42.5396 18.1046 42.1544 15.2968 40.3212M22.7779 42.5031C21.1084 46.085 16.4803 54.6097 17.6985 60.4109" stroke="url(#paint39_linear_259_12511)" stroke-width="0.948443" stroke-linecap="round"/>
<circle cx="1.18555" cy="1.18555" r="1.18555" transform="matrix(-0.422778 0.906233 0.906233 0.422778 22.2084 40.9292)" fill="url(#paint40_radial_259_12511)"/>
<circle cx="1.18555" cy="1.18555" r="0.948443" transform="matrix(-0.422778 0.906233 0.906233 0.422778 22.2084 40.9292)" stroke="#60A80E" stroke-opacity="0.8" stroke-width="0.474221"/>
<path d="M24.6786 34.2323C26.8561 36.2947 30.2416 37.2636 31.6621 37.4902C31.0414 37.4187 29.227 37.6624 26.9352 39.2097" stroke="url(#paint41_linear_259_12511)" stroke-width="0.711332" stroke-linecap="round"/>
<circle cx="1.18555" cy="1.18555" r="1.18555" transform="matrix(-0.422778 0.906233 0.906233 0.422778 31.0889 35.9146)" fill="url(#paint42_radial_259_12511)"/>
<circle cx="1.18555" cy="1.18555" r="0.948443" transform="matrix(-0.422778 0.906233 0.906233 0.422778 31.0889 35.9146)" stroke="#60A80E" stroke-opacity="0.8" stroke-width="0.474221"/>
<path d="M26.2569 51.6604C26.1367 48.6636 27.6347 45.4768 28.3988 44.258C28.0442 44.7725 26.6668 45.9784 23.9937 46.686" stroke="url(#paint43_linear_259_12511)" stroke-width="0.711332" stroke-linecap="round"/>
<circle cx="1.18555" cy="1.18555" r="1.18555" transform="matrix(0.83018 0.557496 0.557496 -0.83018 26.9277 44.8308)" fill="url(#paint44_radial_259_12511)"/>
<circle cx="1.18555" cy="1.18555" r="0.948443" transform="matrix(0.83018 0.557496 0.557496 -0.83018 26.9277 44.8308)" stroke="#60A80E" stroke-opacity="0.8" stroke-width="0.474221"/>
<path d="M26.9629 56.7549C28.18 52.7439 32.7989 47.0495 34.7487 45.5737C34.3941 46.0882 35.6995 46.4403 34.5184 51.7763" stroke="url(#paint45_linear_259_12511)" stroke-width="0.711332" stroke-linecap="round"/>
<circle cx="1.18555" cy="1.18555" r="1.18555" transform="matrix(0.83018 0.557496 0.557496 -0.83018 33.5614 45.4115)" fill="url(#paint46_radial_259_12511)"/>
<circle cx="1.18555" cy="1.18555" r="0.948443" transform="matrix(0.83018 0.557496 0.557496 -0.83018 33.5614 45.4115)" stroke="#60A80E" stroke-opacity="0.8" stroke-width="0.474221"/>
<path d="M16.587 48.7725C15.9187 50.205 14.1955 54.4595 13.6516 57.8688M16.587 48.7725C16.2529 49.4887 15.9141 51.3366 17.2321 52.9981M16.587 48.7725C15.1905 49.4292 12.0967 51.3872 10.8937 53.9657" stroke="url(#paint47_linear_259_12511)" stroke-width="0.474221" stroke-linecap="round"/>
<circle cx="0.592777" cy="0.592777" r="0.592777" transform="matrix(-0.422778 0.906233 0.906233 0.422778 16.5511 47.4475)" fill="url(#paint48_radial_259_12511)"/>
<circle cx="0.592777" cy="0.592777" r="0.474221" transform="matrix(-0.422778 0.906233 0.906233 0.422778 16.5511 47.4475)" stroke="#60A80E" stroke-opacity="0.4" stroke-width="0.237111"/>
<path d="M24.2745 37.5618C22.7027 37.3936 19.9877 37.2767 19.9877 37.2767M24.2745 37.5618C23.4886 37.4777 19.2718 40.2133 19.2718 40.2133M24.2745 37.5618C23.2008 36.4533 22.2667 35.7235 22.2667 35.7235" stroke="url(#paint49_linear_259_12511)" stroke-width="0.474221" stroke-linecap="round"/>
<circle cx="0.592777" cy="0.592777" r="0.592777" transform="matrix(-0.994325 -0.106381 -0.106381 0.994325 25.5164 37.0985)" fill="url(#paint50_radial_259_12511)"/>
<circle cx="0.592777" cy="0.592777" r="0.474221" transform="matrix(-0.994325 -0.106381 -0.106381 0.994325 25.5164 37.0985)" stroke="#60A80E" stroke-opacity="0.4" stroke-width="0.237111"/>
<circle cx="52.7571" cy="40.716" r="2.37111" fill="url(#paint51_radial_259_12511)" stroke="#60A80E" stroke-width="1.18555"/>
<defs>
<linearGradient id="paint0_linear_259_12511" x1="86.5454" y1="-7.29888" x2="129.225" y2="24.7111" gradientUnits="userSpaceOnUse">
<stop offset="0.104904" stop-color="white"/>
<stop offset="0.590577" stop-color="#66AB17"/>
</linearGradient>
<linearGradient id="paint1_linear_259_12511" x1="65.2054" y1="27.0822" x2="107.885" y2="-2.55666" gradientUnits="userSpaceOnUse">
<stop stop-color="#60A80E"/>
<stop offset="1" stop-color="white"/>
</linearGradient>
<linearGradient id="paint2_linear_259_12511" x1="119.148" y1="-5.52055" x2="44.4582" y2="28.8605" gradientUnits="userSpaceOnUse">
<stop stop-color="white"/>
<stop offset="1" stop-color="#60A80E"/>
</linearGradient>
<linearGradient id="paint3_linear_259_12511" x1="59.8693" y1="26.4894" x2="76.4693" y2="12.8555" gradientUnits="userSpaceOnUse">
<stop stop-color="#60A80E"/>
<stop offset="1" stop-color="white"/>
</linearGradient>
<radialGradient id="paint4_radial_259_12511" cx="0" cy="0" r="1" gradientUnits="userSpaceOnUse" gradientTransform="translate(56.3138 28.8605) rotate(90) scale(1.77833)">
<stop stop-color="#60A80E"/>
<stop offset="1" stop-color="white"/>
</radialGradient>
<linearGradient id="paint5_linear_259_12511" x1="65.2054" y1="15.2266" x2="85.7365" y2="1.23724" gradientUnits="userSpaceOnUse">
<stop stop-color="#60A80E"/>
<stop offset="1" stop-color="white"/>
</linearGradient>
<radialGradient id="paint6_radial_259_12511" cx="0" cy="0" r="1" gradientUnits="userSpaceOnUse" gradientTransform="translate(67.5765 12.8555) rotate(90) scale(1.18555)">
<stop stop-color="#60A80E"/>
<stop offset="1" stop-color="white"/>
</radialGradient>
<linearGradient id="paint7_linear_259_12511" x1="59.2776" y1="18.6961" x2="62.8343" y2="11.1644" gradientUnits="userSpaceOnUse">
<stop stop-color="#60A80E"/>
<stop offset="1" stop-color="white"/>
</linearGradient>
<radialGradient id="paint8_radial_259_12511" cx="0" cy="0" r="1" gradientUnits="userSpaceOnUse" gradientTransform="translate(59.2777 18.7833) rotate(90) scale(1.18555)">
<stop stop-color="#60A80E"/>
<stop offset="1" stop-color="white"/>
</radialGradient>
<linearGradient id="paint9_linear_259_12511" x1="66.8767" y1="18.7007" x2="74.8668" y2="16.3483" gradientUnits="userSpaceOnUse">
<stop stop-color="#60A80E"/>
<stop offset="1" stop-color="white"/>
</linearGradient>
<radialGradient id="paint10_radial_259_12511" cx="0" cy="0" r="1" gradientUnits="userSpaceOnUse" gradientTransform="translate(66.943 18.9505) rotate(90) scale(1.18555)">
<stop stop-color="#60A80E"/>
<stop offset="1" stop-color="white"/>
</radialGradient>
<linearGradient id="paint11_linear_259_12511" x1="60.9394" y1="23.855" x2="81.0938" y2="20.8911" gradientUnits="userSpaceOnUse">
<stop stop-color="#60A80E"/>
<stop offset="1" stop-color="white"/>
</linearGradient>
<radialGradient id="paint12_radial_259_12511" cx="0" cy="0" r="1" gradientUnits="userSpaceOnUse" gradientTransform="translate(64.6647 25.2077) rotate(90) scale(1.18555)">
<stop stop-color="#60A80E"/>
<stop offset="1" stop-color="white"/>
</radialGradient>
<linearGradient id="paint13_linear_259_12511" x1="62.8343" y1="14.6339" x2="90.1021" y2="6.92776" gradientUnits="userSpaceOnUse">
<stop stop-color="#60A80E"/>
<stop offset="1" stop-color="white"/>
</linearGradient>
<radialGradient id="paint14_radial_259_12511" cx="0" cy="0" r="1" gradientUnits="userSpaceOnUse" gradientTransform="translate(75.2827 9.89165) rotate(90) scale(0.592777)">
<stop stop-color="#60A80E"/>
<stop offset="1" stop-color="white"/>
</radialGradient>
<linearGradient id="paint15_linear_259_12511" x1="61.6488" y1="15.8194" x2="64.0199" y2="6.33499" gradientUnits="userSpaceOnUse">
<stop stop-color="#60A80E"/>
<stop offset="1" stop-color="white"/>
</linearGradient>
<radialGradient id="paint16_radial_259_12511" cx="0" cy="0" r="1" gradientUnits="userSpaceOnUse" gradientTransform="translate(62.2737 12.6795) rotate(90) scale(0.592777)">
<stop stop-color="#60A80E"/>
<stop offset="1" stop-color="white"/>
</radialGradient>
<linearGradient id="paint17_linear_259_12511" x1="122.112" y1="70.9477" x2="69.9477" y2="57.9066" gradientUnits="userSpaceOnUse">
<stop stop-color="#60A80E"/>
<stop offset="0.908833" stop-color="white"/>
</linearGradient>
<linearGradient id="paint18_linear_259_12511" x1="64.1404" y1="52.6376" x2="94.8545" y2="94.5503" gradientUnits="userSpaceOnUse">
<stop stop-color="#60A80E"/>
<stop offset="1" stop-color="white"/>
</linearGradient>
<linearGradient id="paint19_linear_259_12511" x1="98.1037" y1="105.734" x2="61.8353" y2="31.9423" gradientUnits="userSpaceOnUse">
<stop stop-color="white"/>
<stop offset="1" stop-color="#60A80E"/>
</linearGradient>
<linearGradient id="paint20_linear_259_12511" x1="64.5973" y1="47.2881" x2="78.6487" y2="63.5362" gradientUnits="userSpaceOnUse">
<stop stop-color="#60A80E"/>
<stop offset="1" stop-color="white"/>
</linearGradient>
<radialGradient id="paint21_radial_259_12511" cx="0" cy="0" r="1" gradientUnits="userSpaceOnUse" gradientTransform="translate(62.1366 43.794) rotate(90) scale(1.77833)">
<stop stop-color="#60A80E"/>
<stop offset="1" stop-color="white"/>
</radialGradient>
<linearGradient id="paint22_linear_259_12511" x1="75.9921" y1="52.3362" x2="90.4988" y2="72.5051" gradientUnits="userSpaceOnUse">
<stop stop-color="#60A80E"/>
<stop offset="1" stop-color="white"/>
</linearGradient>
<radialGradient id="paint23_radial_259_12511" cx="0" cy="0" r="1" gradientUnits="userSpaceOnUse" gradientTransform="translate(78.4227 54.6463) rotate(90) scale(1.18555)">
<stop stop-color="#60A80E"/>
<stop offset="1" stop-color="white"/>
</radialGradient>
<linearGradient id="paint24_linear_259_12511" x1="72.3731" y1="46.4985" x2="79.9927" y2="49.8626" gradientUnits="userSpaceOnUse">
<stop stop-color="#60A80E"/>
<stop offset="1" stop-color="white"/>
</linearGradient>
<radialGradient id="paint25_radial_259_12511" cx="0" cy="0" r="1" gradientUnits="userSpaceOnUse" gradientTransform="translate(72.2859 46.5008) rotate(90) scale(1.18555)">
<stop stop-color="#60A80E"/>
<stop offset="1" stop-color="white"/>
</radialGradient>
<linearGradient id="paint26_linear_259_12511" x1="72.5617" y1="54.0952" x2="75.1164" y2="62.0229" gradientUnits="userSpaceOnUse">
<stop stop-color="#60A80E"/>
<stop offset="1" stop-color="white"/>
</linearGradient>
<radialGradient id="paint27_radial_259_12511" cx="0" cy="0" r="1" gradientUnits="userSpaceOnUse" gradientTransform="translate(72.3137 54.1679) rotate(90) scale(1.18555)">
<stop stop-color="#60A80E"/>
<stop offset="1" stop-color="white"/>
</radialGradient>
<linearGradient id="paint28_linear_259_12511" x1="67.2581" y1="48.2909" x2="70.7333" y2="68.3634" gradientUnits="userSpaceOnUse">
<stop stop-color="#60A80E"/>
<stop offset="1" stop-color="white"/>
</linearGradient>
<radialGradient id="paint29_radial_259_12511" cx="0" cy="0" r="1" gradientUnits="userSpaceOnUse" gradientTransform="translate(66.0005 52.0494) rotate(90) scale(1.18555)">
<stop stop-color="#60A80E"/>
<stop offset="1" stop-color="white"/>
</radialGradient>
<linearGradient id="paint30_linear_259_12511" x1="76.5244" y1="49.9508" x2="84.9211" y2="77.0138" gradientUnits="userSpaceOnUse">
<stop stop-color="#60A80E"/>
<stop offset="1" stop-color="white"/>
</linearGradient>
<radialGradient id="paint31_radial_259_12511" cx="0" cy="0" r="1" gradientUnits="userSpaceOnUse" gradientTransform="translate(81.5815 62.2745) rotate(90) scale(0.592777)">
<stop stop-color="#60A80E"/>
<stop offset="1" stop-color="white"/>
</radialGradient>
<linearGradient id="paint32_linear_259_12511" x1="75.3091" y1="48.7958" x2="84.8507" y2="50.925" gradientUnits="userSpaceOnUse">
<stop stop-color="#60A80E"/>
<stop offset="1" stop-color="white"/>
</linearGradient>
<radialGradient id="paint33_radial_259_12511" cx="0" cy="0" r="1" gradientUnits="userSpaceOnUse" gradientTransform="translate(78.4638 49.3407) rotate(90) scale(0.592777)">
<stop stop-color="#60A80E"/>
<stop offset="1" stop-color="white"/>
</radialGradient>
<linearGradient id="paint34_linear_259_12511" x1="-18.9688" y1="56.721" x2="5.335" y2="69.1693" gradientUnits="userSpaceOnUse">
<stop stop-color="#60A80E"/>
<stop offset="1" stop-color="white"/>
</linearGradient>
<linearGradient id="paint35_linear_259_12511" x1="36.6767" y1="46.3708" x2="-8.22715" y2="72.5181" gradientUnits="userSpaceOnUse">
<stop stop-color="#60A80E"/>
<stop offset="1" stop-color="white"/>
</linearGradient>
<linearGradient id="paint36_linear_259_12511" x1="-15.6748" y1="81.4717" x2="47.0597" y2="28.3208" gradientUnits="userSpaceOnUse">
<stop stop-color="white"/>
<stop offset="1" stop-color="#60A80E"/>
</linearGradient>
<linearGradient id="paint37_linear_259_12511" x1="38.3955" y1="41.2844" x2="19.0219" y2="50.5637" gradientUnits="userSpaceOnUse">
<stop stop-color="#60A80E"/>
<stop offset="1" stop-color="white"/>
</linearGradient>
<radialGradient id="paint38_radial_259_12511" cx="0" cy="0" r="1" gradientUnits="userSpaceOnUse" gradientTransform="translate(1.77833 1.77833) rotate(90) scale(1.77833)">
<stop stop-color="#60A80E"/>
<stop offset="1" stop-color="white"/>
</radialGradient>
<linearGradient id="paint39_linear_259_12511" x1="25.9328" y1="41.3585" x2="4.57503" y2="54.05" gradientUnits="userSpaceOnUse">
<stop stop-color="#60A80E"/>
<stop offset="1" stop-color="white"/>
</linearGradient>
<radialGradient id="paint40_radial_259_12511" cx="0" cy="0" r="1" gradientUnits="userSpaceOnUse" gradientTransform="translate(1.18555 1.18555) rotate(90) scale(1.18555)">
<stop stop-color="#60A80E"/>
<stop offset="1" stop-color="white"/>
</radialGradient>
<linearGradient id="paint41_linear_259_12511" x1="31.583" y1="37.4534" x2="23.2539" y2="37.4923" gradientUnits="userSpaceOnUse">
<stop stop-color="#60A80E"/>
<stop offset="1" stop-color="white"/>
</linearGradient>
<radialGradient id="paint42_radial_259_12511" cx="0" cy="0" r="1" gradientUnits="userSpaceOnUse" gradientTransform="translate(1.18555 1.18555) rotate(90) scale(1.18555)">
<stop stop-color="#60A80E"/>
<stop offset="1" stop-color="white"/>
</radialGradient>
<linearGradient id="paint43_linear_259_12511" x1="28.3745" y1="44.3418" x2="22.8646" y2="50.5881" gradientUnits="userSpaceOnUse">
<stop stop-color="#60A80E"/>
<stop offset="1" stop-color="white"/>
</linearGradient>
<radialGradient id="paint44_radial_259_12511" cx="0" cy="0" r="1" gradientUnits="userSpaceOnUse" gradientTransform="translate(1.18555 1.18555) rotate(90) scale(1.18555)">
<stop stop-color="#60A80E"/>
<stop offset="1" stop-color="white"/>
</radialGradient>
<linearGradient id="paint45_linear_259_12511" x1="35.5557" y1="41.1403" x2="24.3489" y2="58.1519" gradientUnits="userSpaceOnUse">
<stop stop-color="#60A80E"/>
<stop offset="1" stop-color="white"/>
</linearGradient>
<radialGradient id="paint46_radial_259_12511" cx="0" cy="0" r="1" gradientUnits="userSpaceOnUse" gradientTransform="translate(1.18555 1.18555) rotate(90) scale(1.18555)">
<stop stop-color="#60A80E"/>
<stop offset="1" stop-color="white"/>
</radialGradient>
<linearGradient id="paint47_linear_259_12511" x1="26.3981" y1="38.9591" x2="7.88635" y2="60.4121" gradientUnits="userSpaceOnUse">
<stop stop-color="#60A80E"/>
<stop offset="1" stop-color="white"/>
</linearGradient>
<radialGradient id="paint48_radial_259_12511" cx="0" cy="0" r="1" gradientUnits="userSpaceOnUse" gradientTransform="translate(0.592777 0.592777) rotate(90) scale(0.592777)">
<stop stop-color="#60A80E"/>
<stop offset="1" stop-color="white"/>
</radialGradient>
<linearGradient id="paint49_linear_259_12511" x1="27.9737" y1="38.3859" x2="18.3761" y2="36.5249" gradientUnits="userSpaceOnUse">
<stop stop-color="#60A80E"/>
<stop offset="1" stop-color="white"/>
</linearGradient>
<radialGradient id="paint50_radial_259_12511" cx="0" cy="0" r="1" gradientUnits="userSpaceOnUse" gradientTransform="translate(0.592777 0.592777) rotate(90) scale(0.592777)">
<stop stop-color="#60A80E"/>
<stop offset="1" stop-color="white"/>
</radialGradient>
<radialGradient id="paint51_radial_259_12511" cx="0" cy="0" r="1" gradientUnits="userSpaceOnUse" gradientTransform="translate(52.7571 40.716) rotate(90) scale(2.96388)">
<stop stop-color="#60A80E"/>
<stop offset="1" stop-color="white"/>
</radialGradient>
</defs>
</svg>
